<svg xmlns="http://www.w3.org/2000/svg" viewBox="0 0 1200 630">
  <defs>
    <radialGradient id="bg" cx="18%" cy="16%" r="105%">
      <stop offset="0" stop-color="#321a22" />
      <stop offset="0.45" stop-color="#111217" />
      <stop offset="1" stop-color="#08090c" />
    </radialGradient>
    <linearGradient id="line" x1="100" y1="50" x2="1080" y2="560" gradientUnits="userSpaceOnUse">
      <stop stop-color="#f1efc6" />
      <stop offset="0.55" stop-color="#d9d7a4" />
      <stop offset="1" stop-color="#74242d" />
    </linearGradient>
  </defs>
  <rect width="1200" height="630" fill="url(#bg)" />
  <path d="M-90 520C160 180 340 610 610 290S980 60 1310 310" fill="none" stroke="#d9d7a4" stroke-opacity=".11" stroke-width="2" />
  <path d="M-50 575C210 285 430 590 690 355S1040 170 1270 430" fill="none" stroke="#74242d" stroke-opacity=".28" stroke-width="2" />
  <circle cx="950" cy="315" r="184" fill="none" stroke="#74242d" stroke-opacity=".22" stroke-width="2" />
  <circle cx="950" cy="315" r="128" fill="none" stroke="#d9d7a4" stroke-opacity=".1" stroke-width="2" />
  <g transform="translate(790 155) scale(3.33)" fill="none" stroke="url(#line)" stroke-linecap="round">
    <path d="M75 20.5A34 34 0 1 1 38.5 14" stroke-width="2.4" />
    <path d="M18 63C31 51 38 50 49 49c12-1 18-8 28-22" stroke-width="1.35" opacity=".82" />
    <path d="M15 45c15 9 25 10 35 5 12-6 20-7 33-5" stroke-width="1.35" opacity=".6" />
    <path d="M26 19c8 17 13 24 24 31 10 7 16 14 19 29" stroke-width="1.35" opacity=".42" />
  </g>
  <circle cx="956" cy="321" r="18" fill="#74242d" stroke="#d9d7a4" stroke-opacity=".55" stroke-width="2" />
  <text x="96" y="126" fill="#9f955f" font-family="Georgia, serif" font-size="22" letter-spacing="7">FIO-MESTRE</text>
  <text x="92" y="278" fill="#f2f0dc" font-family="Georgia, serif" font-size="74" font-weight="600">Tadeon Nexus</text>
  <text x="98" y="336" fill="#bbb8ad" font-family="Arial, sans-serif" font-size="25" letter-spacing=".5">Arquivo vivo para Tessitura do Vazio</text>
  <rect x="98" y="398" width="168" height="2" fill="#74242d" />
  <text x="98" y="452" fill="#817f79" font-family="Arial, sans-serif" font-size="18" letter-spacing="3">CONHECIMENTO · MESA · CONDUÇÃO</text>
  <rect x="18" y="18" width="1164" height="594" rx="18" fill="none" stroke="#fff" stroke-opacity=".05" stroke-width="2" />
</svg>
